<?xml version="1.0" standalone="no"?>
<!DOCTYPE svg PUBLIC "-//W3C//DTD SVG 20010904//EN"
 "http://www.w3.org/TR/2001/REC-SVG-20010904/DTD/svg10.dtd">
<svg version="1.0" xmlns="http://www.w3.org/2000/svg"
 width="1024.000000pt" height="1024.000000pt" viewBox="0 0 1024.000000 1024.000000"
 preserveAspectRatio="xMidYMid meet">

<g transform="translate(0.000000,1024.000000) scale(0.100000,-0.100000)"
fill="#000000" stroke="none">
<path d="M0 5120 l0 -5120 5120 0 5120 0 0 5120 0 5120 -5120 0 -5120 0 0
-5120z m5372 2320 c670 -45 1339 -301 2000 -763 464 -325 944 -787 1414 -1362
72 -88 136 -170 142 -182 14 -25 7 -34 -167 -247 -321 -392 -718 -797 -1051
-1072 -649 -538 -1372 -878 -2087 -984 -305 -45 -637 -47 -958 -5 -950 124
-1913 684 -2760 1605 -246 268 -575 661 -575 687 0 21 279 361 485 591 135
150 473 487 603 600 296 258 640 500 963 678 645 355 1287 501 1991 454z"/>
<path d="M4900 6980 c-419 -58 -798 -251 -1082 -548 -229 -241 -405 -556 -483
-862 -45 -179 -58 -306 -52 -515 9 -291 57 -493 177 -743 93 -193 230 -385
380 -531 280 -274 644 -457 1028 -516 155 -24 474 -17 612 13 396 88 708 257
979 532 256 260 412 545 496 905 92 397 37 854 -146 1206 -65 124 -228 365
-305 449 -280 307 -617 501 -1019 586 -100 22 -152 26 -320 29 -110 2 -229 0
-265 -5z m1284 -638 c3 -5 6 -72 7 -150 l1 -142 33 0 c24 0 39 -7 54 -26 20
-26 21 -37 21 -423 0 -377 -1 -398 -20 -428 -15 -26 -27 -33 -50 -33 l-30 0 0
-84 c0 -45 -3 -111 -6 -145 l-7 -62 -51 3 -51 3 -3 143 -3 142 -34 0 c-22 0
-41 8 -55 22 -19 21 -20 33 -20 425 0 457 1 463 65 463 l35 0 0 138 c0 94 4
142 12 150 14 14 94 16 102 4z m-1083 -562 c4 -36 7 -95 8 -132 l1 -68 30 0
c57 0 60 -20 60 -382 0 -304 -1 -325 -20 -355 -14 -23 -27 -33 -45 -33 l-25 0
0 -104 c0 -57 -3 -111 -6 -120 -4 -11 -19 -16 -49 -16 -52 0 -55 6 -55 142 l0
97 -32 3 c-26 2 -37 10 -50 38 -16 31 -18 69 -18 340 1 373 6 404 70 398 l25
-3 1 117 c1 65 4 124 7 132 4 9 20 13 49 12 l43 -1 6 -65z m507 -327 l3 -133
33 0 c21 0 40 -8 54 -23 20 -22 21 -31 23 -320 1 -272 0 -300 -16 -318 -12
-12 -31 -19 -54 -19 l-36 0 -3 -87 c-2 -49 -6 -91 -9 -95 -2 -5 -26 -8 -52 -8
-58 0 -61 6 -61 118 l0 72 -33 0 c-18 0 -43 7 -55 16 -22 15 -22 16 -22 316 0
296 0 302 22 325 14 15 33 23 55 23 l33 0 0 123 c0 85 4 127 12 135 8 8 32 12
58 10 l45 -3 3 -132z m-983 -393 c0 -36 -3 -105 -5 -154 l-4 -88 159 -147 c88
-80 171 -163 185 -182 14 -20 54 -62 90 -94 36 -32 131 -121 212 -197 l146
-138 49 62 c27 35 93 120 146 189 142 186 410 494 433 497 30 4 88 -60 80 -90
-12 -46 -676 -848 -702 -848 -27 0 -78 32 -134 83 -30 28 -174 166 -320 307
-146 140 -299 288 -341 328 l-76 73 -108 -143 c-131 -173 -328 -420 -351 -438
-12 -11 -22 -11 -42 -3 -302 125 -285 112 -259 187 21 62 31 64 147 24 l103
-36 24 28 c93 111 292 364 359 456 l81 112 12 133 c7 73 14 137 17 141 3 5 27
8 52 6 l47 -3 0 -65z"/>
<path d="M3350 6431 c-546 -341 -965 -715 -1458 -1303 -13 -15 -2 -32 114
-165 403 -465 927 -911 1412 -1201 56 -34 105 -62 108 -62 3 0 -20 30 -49 68
-215 266 -383 627 -446 955 -115 597 41 1232 427 1740 28 37 50 67 49 66 -1 0
-72 -44 -157 -98z"/>
<path d="M6818 6473 c120 -153 294 -475 357 -658 32 -94 78 -287 96 -400 20
-123 17 -475 -5 -610 -64 -391 -227 -755 -470 -1050 l-41 -49 60 34 c489 276
1061 770 1543 1333 l33 38 -52 62 c-353 425 -783 826 -1194 1114 -105 74 -340
223 -350 223 -4 0 7 -17 23 -37z"/>
</g>
</svg>
